<svg width="341.50148925781247px" height="172.4px" xmlns="http://www.w3.org/2000/svg" viewBox="79.24925537109377 -11.200000000000003 341.50148925781247 172.4" style="background: rgba(0, 0, 0, 0);" preserveAspectRatio="xMidYMid"><defs><filter id="editing-hole" x="-100%" y="-100%" width="300%" height="300%"><feFlood flood-color="#909090" result="black"></feFlood><feMorphology operator="dilate" radius="2" in="SourceGraphic" result="erode"></feMorphology><feGaussianBlur in="erode" stdDeviation="4" result="blur"></feGaussianBlur><feOffset in="blur" dx="2" dy="2" result="offset"></feOffset><feComposite operator="atop" in="offset" in2="black" result="merge"></feComposite><feComposite operator="in" in="merge" in2="SourceGraphic" result="inner-shadow"></feComposite></filter></defs><g filter="url(#editing-hole)"><g transform="translate(132.31493067741394, 109.6400032043457)"><path d="M32.02-50.97L32.02-50.97L32.38-53.82L32.38-53.82Q32.38-58.05 29.07-59.25L29.07-59.25L29.07-59.25Q26.50-60.08 25.12-60.08L25.12-60.08L25.02-60.08L25.02-60.08Q22.26-60.08 20.24-59.20L20.24-59.20L20.24-59.20Q18.22-58.33 17.30-57.04L17.30-57.04L17.30-57.04Q15.36-54.37 15.09-51.43L15.09-51.43L15.09-51.43Q15.09-47.93 18.22-45.40L18.22-45.40L18.22-45.40Q21.34-42.87 25.81-40.99L25.81-40.99L25.81-40.99Q30.27-39.10 34.73-36.89L34.73-36.89L34.73-36.89Q39.19-34.68 42.32-30.54L42.32-30.54L42.32-30.54Q45.45-26.40 45.45-20.61L45.45-20.61L45.45-20.61Q45.45-9.29 38.32-3.68L38.32-3.68L38.32-3.68Q31.19 1.93 22.13 1.93L22.13 1.93L22.13 1.93Q13.06 1.93 7.13-2.16L7.13-2.16L7.13-2.16Q1.20-6.26 1.20-13.16L1.20-13.16L1.20-13.25L1.20-13.25Q1.20-16.65 2.25-19.18L2.25-19.18L2.25-19.18Q3.31-21.71 4.78-22.91L4.78-22.91L4.78-22.91Q7.82-25.39 10.30-25.58L10.30-25.58L11.41-25.67L11.41-25.67Q13.98-25.67 16.10-24.43L16.10-24.43L16.10-24.43Q18.22-23.18 18.22-20.98L18.22-20.98L18.22-20.98Q18.22-19.87 17.02-19.14L17.02-19.14L17.02-19.14Q15.82-18.40 14.95-16.93L14.95-16.93L14.95-16.93Q14.08-15.46 13.98-14.44L13.98-14.44L13.80-13.43L13.80-13.43Q13.80-7.82 18.95-5.98L18.95-5.98L18.95-5.98Q20.79-5.34 21.90-5.34L21.90-5.34L21.90-5.34Q26.96-5.34 30.04-8.37L30.04-8.37L30.04-8.37Q33.12-11.41 33.12-16.10L33.12-16.10L33.12-16.10Q33.12-21.71 28.34-25.21L28.34-25.21L28.34-25.21Q24.75-27.78 20.56-29.53L20.56-29.53L20.56-29.53Q16.38-31.28 14.90-32.02L14.90-32.02L14.90-32.02Q13.43-32.75 11.78-33.76L11.78-33.76L11.78-33.76Q10.12-34.78 8.10-36.62L8.10-36.62L8.10-36.62Q3.68-40.48 3.68-47.06L3.68-47.06L3.68-47.06Q3.68-53.64 7.27-58.14L7.27-58.14L7.27-58.14Q13.71-66.33 26.59-66.33L26.59-66.33L26.59-66.33Q33.40-66.33 38.09-63.71L38.09-63.71L38.09-63.71Q42.78-61.09 42.78-56.49L42.78-56.49L42.78-56.49Q42.78-53.18 40.89-50.97L40.89-50.97L40.89-50.97Q39.01-48.76 36.06-48.76L36.06-48.76L36.06-48.76Q34.68-48.76 33.35-49.31L33.35-49.31L33.35-49.31Q32.02-49.86 32.02-50.97ZM73.60-52.72L73.60-52.72L73.60-52.72Q66.33-43.61 63.11-34.50L63.11-34.50L63.20-34.50L63.20-34.50Q75.99-34.50 77.88-34.45L77.88-34.45L77.88-34.45Q79.76-34.41 79.95-34.59L79.95-34.59L79.95-34.59Q80.13-34.78 80.22-35.05L80.22-35.05L80.22-35.05Q78.66-46.37 77.74-50.46L77.74-50.46L77.74-50.46Q76.82-54.56 75.90-54.56L75.90-54.56L75.90-54.56Q74.98-54.56 73.60-52.72ZM65.41-9.38L65.41-9.38L67.44-9.75L67.44-9.75Q68.36-9.75 68.36-8.74L68.36-8.74L68.36-8.74Q68.36-5.52 67.07-3.31L67.07-3.31L67.07-3.31Q65.78-1.10 63.85-0.18L63.85-0.18L63.85-0.18Q60.72 1.38 58.51 1.38L58.51 1.38L58.51 1.38Q54.28 1.38 52.16-1.79L52.16-1.79L52.16-1.79Q50.05-4.97 50.05-11.36L50.05-11.36L50.05-11.36Q50.05-17.76 53.54-27.97L53.54-27.97L48.21-27.97L48.21-27.97Q47.20-27.97 47.20-28.98L47.20-28.98L47.20-28.98Q47.20-29.99 48.76-32.25L48.76-32.25L48.76-32.25Q50.32-34.50 52.07-34.50L52.07-34.50L56.21-34.50L56.21-34.50Q62.74-49.04 71.58-59.62L71.58-59.62L71.58-59.62Q73.88-62.38 77.23-64.77L77.23-64.77L77.23-64.77Q80.59-67.16 82.43-67.16L82.43-67.16L82.43-67.16Q84.27-67.16 85.19-65.50L85.19-65.50L85.19-65.50Q87.58-61.64 90.80-37.26L90.80-37.26L90.80-37.26Q91.91-26.77 94.62-15.59L94.62-15.59L94.62-15.59Q97.34-4.42 99.64-2.58L99.64-2.58L99.64-2.58Q100.19-2.21 100.19-1.66L100.19-1.66L100.19-1.66Q100.19-0.28 96.28 0.92L96.28 0.92L96.28 0.92Q92.37 2.12 90.30 2.12L90.30 2.12L90.30 2.12Q88.23 2.12 87.12 1.61L87.12 1.61L87.12 1.61Q86.02 1.10 85.74 0.55L85.74 0.55L85.74 0.55Q84.09-3.04 82.43-16.56L82.43-16.56L81.88-20.88L81.88-20.88Q81.51-25.21 81.14-27.42L81.14-27.42L80.50-27.88L61.27-27.97L61.27-27.97Q60.17-23.28 60.17-19.78L60.17-19.78L60.17-19.78Q60.17-16.28 60.40-14.67L60.40-14.67L60.40-14.67Q60.63-13.06 61.92-11.22L61.92-11.22L61.92-11.22Q63.20-9.38 65.41-9.38ZM104.60-35.79L104.60-35.79L104.14-53.18L104.14-53.18Q104.14-57.32 103.22-59.71L103.22-59.71L103.22-59.71Q102.30-62.10 102.30-62.28L102.30-62.28L102.30-62.28Q102.30-64.31 108.51-65.41L108.51-65.41L108.51-65.41Q114.72-66.52 117.99-66.52L117.99-66.52L117.99-66.52Q121.26-66.52 121.53-64.95L121.53-64.95L121.53-64.95Q127.33-39.10 131.28-29.07L131.28-29.07L131.28-29.07Q131.74-27.97 132.25-27.97L132.25-27.97L132.25-27.97Q132.76-27.97 133.12-28.80L133.12-28.80L133.12-28.80Q139.29-46.18 143.98-63.20L143.98-63.20L143.98-63.20Q144.35-64.31 145.82-64.91L145.82-64.91L145.82-64.91Q147.29-65.50 150.93-66.06L150.93-66.06L150.93-66.06Q154.56-66.61 158.15-66.61L158.15-66.61L158.15-66.61Q161.74-66.61 161.74-65.14L161.74-65.14L161.74-65.14Q161.74-65.04 161.46-63.71L161.46-63.71L161.46-63.71Q161.18-62.38 160.91-60.44L160.91-60.44L160.91-60.44Q160.63-58.51 160.26-55.75L160.26-55.75L160.26-55.75Q159.44-49.40 159.21-41.17L159.21-41.17L159.21-41.17Q158.98-32.94 158.98-24.66L158.98-24.66L159.16-15.00L159.16-15.00Q159.16-8.37 160.03-5.57L160.03-5.57L160.03-5.57Q160.91-2.76 160.91-2.35L160.91-2.35L160.91-2.35Q160.91-1.93 160.26-1.38L160.26-1.38L160.26-1.38Q157.41 0.92 151.62 0.92L151.62 0.92L151.62 0.92Q147.94 0.92 147.48-1.56L147.48-1.56L147.48-1.56Q147.20-2.85 147.20-5.66L147.20-5.66L147.20-5.66Q147.20-8.46 147.75-22.91L147.75-22.91L147.75-22.91Q148.30-37.35 148.30-43.93L148.30-43.93L148.30-43.93Q148.30-50.51 147.57-50.51L147.57-50.51L147.57-50.51Q147.48-50.51 147.48-50.46L147.48-50.46L147.48-50.46Q147.48-50.42 147.20-50.32L147.20-50.32L147.20-50.32Q146.92-50.23 145.77-47.47L145.77-47.47L145.77-47.47Q144.62-44.71 141.22-33.86L141.22-33.86L141.22-33.86Q137.82-23 135.06-13.57L135.06-13.57L135.06-13.57Q132.30-4.14 132.02-3.40L132.02-3.40L132.02-3.40Q131.01-0.92 128.16-0.92L128.16-0.92L128.16-0.92Q126.78-0.92 125.95-1.93L125.95-1.93L125.95-1.93Q123.00-15.55 115.46-40.85L115.46-40.85L112.88-49.22L112.88-49.22Q112.70-49.68 112.52-49.68L112.52-49.68L112.52-49.68Q112.06-49.68 111.87-49.04L111.87-49.04L111.87-49.04Q111.50-43.06 111.50-25.53L111.50-25.53L111.50-25.53Q111.50-8.00 112.79-3.40L112.79-3.40L112.79-3.40Q112.88-3.22 112.88-2.85L112.88-2.85L112.88-2.85Q112.88-0.92 109.85-0.05L109.85-0.05L109.85-0.05Q106.81 0.83 104.37 0.83L104.37 0.83L104.37 0.83Q101.94 0.83 101.94-0.28L101.94-0.28L101.94-0.28Q101.94-0.37 102.40-1.75L102.40-1.75L102.40-1.75Q103.78-6.44 104.19-15.36L104.19-15.36L104.19-15.36Q104.60-24.29 104.60-35.79ZM181.06-40.76L181.06-40.76L181.06-40.76Q181.06-12.24 182.34-3.40L182.34-3.40L182.34-3.40Q182.34-1.20 178.11 0.23L178.11 0.23L178.11 0.23Q173.88 1.66 171.12 1.66L171.12 1.66L171.12 1.66Q168.36 1.66 168.36 0.83L168.36 0.83L168.36 0.83Q168.36 0.28 168.64-0.55L168.64-0.55L168.64-0.55Q170.38-4.42 170.38-31.65L170.38-31.65L170.38-31.65Q170.38-57.41 168.18-60.26L168.18-60.26L167.81-60.81L167.81-60.81Q167.26-61.27 167.26-61.96L167.26-61.96L167.26-61.96Q167.26-62.65 168.27-63.11L168.27-63.11L168.27-63.11Q169.65-63.94 173.19-64.77L173.19-64.77L173.19-64.77Q176.73-65.60 179.58-65.60L179.58-65.60L179.58-65.60Q182.44-65.60 182.44-64.31L182.44-64.31L182.44-64.03L182.44-64.03Q181.33-54.46 181.06-40.76ZM220.98-35.14L219.60-34.87L219.60-34.87Q218.59-34.59 218.59-34.27L218.59-34.27L218.59-34.27Q218.59-33.95 220.80-33.12L220.80-33.12L220.80-33.12Q223.01-32.29 224.99-30.54L224.99-30.54L224.99-30.54Q226.96-28.80 227.79-26.31L227.79-26.31L227.79-26.31Q229.08-22.54 229.08-18.22L229.08-18.22L229.08-18.22Q229.08-13.89 229.72-11.09L229.72-11.09L229.72-11.09Q230.37-8.28 231.29-6.81L231.29-6.81L231.29-6.81Q233.13-3.68 234.69-2.94L234.69-2.94L235.34-2.58L235.34-2.58Q235.89-2.21 235.89-1.66L235.89-1.66L235.89-1.66Q235.89-0.28 231.38 0.78L231.38 0.78L231.38 0.78Q226.87 1.84 224.39 1.84L224.39 1.84L224.39 1.84Q219.51 1.84 218.18-2.07L218.18-2.07L218.18-2.07Q216.84-5.98 216.84-15.46L216.84-15.46L216.84-20.52L216.84-20.52Q216.84-28.52 212.06-30.73L212.06-30.73L212.06-30.73Q210.22-31.56 207.64-31.56L207.64-31.56L207.55-31.56L207.55-31.56Q206.72-31.56 206.72-33.17L206.72-33.17L206.72-33.17Q206.72-34.78 207.69-36.43L207.69-36.43L207.69-36.43Q208.66-38.09 209.39-38.09L209.39-38.09L209.39-38.09Q212.43-38.09 214.64-39.24L214.64-39.24L214.64-39.24Q216.84-40.39 217.86-42.04L217.86-42.04L217.86-42.04Q219.97-45.54 220.16-48.02L220.16-48.02L220.16-49.22L220.16-49.22Q220.16-52.62 219.05-54.97L219.05-54.97L219.05-54.97Q217.95-57.32 216.29-58.24L216.29-58.24L216.29-58.24Q213.53-59.71 210.68-59.71L210.68-59.71L210.68-59.71Q207.83-59.71 205.99-59.25L205.99-59.25L205.99-59.25Q203.41-58.51 203.41-57.68L203.41-57.68L203.41-57.68Q202.58-45.63 202.58-34.45L202.58-34.45L202.58-34.45Q202.58-23.28 202.91-17.34L202.91-17.34L202.91-17.34Q203.23-11.41 203.55-7.77L203.55-7.77L203.55-7.77Q203.87-4.14 203.87-3.50L203.87-3.50L203.87-3.50Q203.87-2.30 203.23-1.84L203.23-1.84L203.23-1.84Q199.46 1.66 191.36 1.66L191.36 1.66L191.36 1.66Q189.98 1.66 189.98 0.74L189.98 0.74L189.98 0.74Q189.98 0.46 190.26-0.55L190.26-0.55L190.26-0.55Q191.18-2.67 191.59-13.98L191.59-13.98L191.59-13.98Q192.00-25.30 192.00-34.64L192.00-34.64L192.00-34.64Q192.00-43.98 191.64-49.77L191.64-49.77L191.64-49.77Q191.08-58.51 189.80-60.26L189.80-60.26L189.80-60.26Q188.78-61.55 188.78-62.05L188.78-62.05L188.78-62.05Q188.78-62.56 189.80-63.11L189.80-63.11L189.80-63.11Q195.68-65.87 211.14-65.87L211.14-65.87L211.14-65.87Q223.56-65.87 229.72-58.88L229.72-58.88L229.72-58.88Q233.04-55.02 233.04-49.22L233.04-49.22L233.04-49.22Q233.04-45.72 231.66-42.96L231.66-42.96L231.66-42.96Q230.28-40.20 228.25-38.73L228.25-38.73L228.25-38.73Q224.39-35.79 220.98-35.14L220.98-35.14Z" fill="#ffffff"></path></g></g><style>text {
  font-size: 64px;
  font-family: Arial Black;
  dominant-baseline: central;
  text-anchor: middle;
}</style></svg>